<svg xmlns="http://www.w3.org/2000/svg" version="1" viewBox="0 0 487 487"><path fill="#565656" d="M33 362v79c0 5 4 9 9 9h61c5 0 9-4 9-9V302l-45 45c-9 9-21 14-34 15zm109-61v140c0 5 4 9 9 9h61c5 0 9-4 9-9v-82c-14 0-27-6-37-16l-42-42zm109 49v91c0 5 4 9 9 9h61c5 0 9-4 9-9V273l-70 70-9 7zm182-180l-73 73v198c0 5 4 9 9 9h61c5 0 9-4 9-9V176l-5-5-1-1z"/><path fill="#565656" d="M483 41c-3-3-8-4-13-4h-2l-85 4c-4 0-9 0-13 4l-3 5c-4 9 1 15 4 18l7 7 15 15-171 171-77-77a25 25 0 0 0-35 0L7 287a25 25 0 0 0 0 35l5 4a25 25 0 0 0 35 0l80-81 77 78a25 25 0 0 0 35 0l194-194 22 22c2 2 6 6 11 6l7-2 5-3c4-4 5-10 5-14l2-55 2-28c0-6-1-10-4-14z"/></svg>