<svg xmlns="http://www.w3.org/2000/svg" version="1" viewBox="0 0 383 383"><path d="M376 0h-3c-74 15-142 51-196 104l-71 4-5 2-72 73a8 8 0 0 0 5 13h1l81-5-9 20c-1 3 0 7 2 9l54 54c2 2 6 3 9 1l21-9-6 83a8 8 0 0 0 14 6l72-73c2-1 3-3 3-5l3-72c53-54 89-122 104-196 0-4-3-8-7-9zM55 178l55-55 52-2c-14 16-27 34-37 53l-70 4zm205 95l-55 55 5-71c19-10 36-22 53-36l-3 52zm-89-15l-47-46A343 343 0 0 1 364 18c-9 41-51 182-193 240z"/><path d="M88 223c-3-3-8-3-11 0L3 297a8 8 0 0 0 5 14l6-2 74-74c3-4 4-9 0-12zm2 70c-3-4-8-4-11 0L5 367a8 8 0 1 0 11 11l74-74c3-3 3-8 0-11zm69 1c-3-2-8-2-11 0l-74 75a8 8 0 1 0 12 11l74-74c2-4 2-9-1-12zM278 69a36 36 0 1 0 0 72 36 36 0 0 0 0-72zm13 50c-7 8-20 8-27 0-8-7-8-20 0-27v-1a20 20 0 1 1 27 28z"/></svg>