<svg xmlns="http://www.w3.org/2000/svg" version="1" viewBox="0 0 490 490"><path fill="#fff" d="M332 470h-77v-22c0-6-4-10-10-10s-10 4-10 10v22h-77a10 10 0 0 0 0 20h174c6 0 10-4 10-10 0-5-4-10-10-10zM230 277c-25 6-44 26-48 52h-40c5-15 18-26 35-26 5 0 9-4 9-10s-4-10-9-10c-28 0-50 20-55 46H44l-3-1c-5 0-10 5-10 10v54c0 13 10 23 23 23h382c13 0 23-10 23-23V129c0-12-10-23-23-23H329c-5 0-10 5-10 10s5 10 10 10h107c2 0 3 2 3 3v263c0 2-1 3-3 3H54c-2 0-3-1-3-3v-43h357a10 10 0 0 0 0-20h-42c-5-26-27-46-54-46a10 10 0 0 0 0 20c16 0 29 11 34 26h-40c-4-28-27-51-56-53-12-1-20 1-20 1zm14 18c21 0 38 15 42 34h-84c5-19 22-34 42-34zm-73-179c0-5-4-10-10-10H54c-13 0-23 11-23 23v173c0 5 5 10 10 10s10-5 10-10V129c0-2 1-3 3-3h107c6 0 10-4 10-10z"/><path fill="#3c92ca" d="M282 267c5 0 10-4 10-10v-19h22c5 0 9-4 9-10v-20c0-6-1-13-5-19l-15-24c-2-2-3-5-3-7V79c0-12-4-24-12-33L252 3c-2-2-5-3-8-3s-5 1-7 3l-37 43c-7 9-11 21-11 32v79c0 3-1 6-3 8l-16 24c-5 6-7 13-7 20v19c0 6 5 10 10 10h18v19c0 6 4 10 10 10s10-4 10-10v-19c6 0 10-4 10-10s-4-10-10-10h-28v-9l3-9 16-23c4-6 6-13 6-20V78c0-7 3-14 7-19l29-34 29 34c5 5 8 12 8 19v80c0 6 1 12 5 18l15 24c2 2 3 5 3 8v10h-27a10 10 0 0 0-5 18v21c0 6 5 10 10 10z"/><path fill="#fff" d="M233 235v43a10 10 0 0 0 20 0v-43c0-5-4-10-10-10-5 0-10 5-10 10z"/></svg>